<svg width="700" height="180" viewBox="0 0 700 180" fill="none" xmlns="http://www.w3.org/2000/svg">
<g clip-path="url(#clip0_1_8)">
<path d="M692 0H8C3.58172 0 0 3.58172 0 8V172C0 176.418 3.58172 180 8 180H692C696.418 180 700 176.418 700 172V8C700 3.58172 696.418 0 692 0Z" fill="#F8F8F8"/>
<path d="M217.496 45.688C216.28 45.688 215.256 46.104 214.264 46.744C214.328 49.72 214.392 53.88 214.392 59H210.808C210.808 51.832 210.744 46.808 210.552 43.192L213.848 43L214.04 44.824C215.32 43.672 216.952 42.648 219.16 42.648C221.944 42.648 223.736 44.28 223.736 48.152V59H220.184V49.4C220.184 46.584 219.128 45.688 217.496 45.688Z" fill="#718C00"/>
<path d="M201.95 40.664H198.27L198.494 36.184H202.238L201.95 40.664ZM207.294 59H192.926V56.312H198.462V45.848L192.862 45.592L193.15 43.064H202.046V56.312H207.582L207.294 59Z" fill="#718C00"/>
<path d="M179.652 45.688C179.044 45.688 178.436 45.976 177.86 46.52C177.924 49.496 177.956 53.752 177.956 59H174.66C174.66 51.832 174.66 46.808 174.532 43.192L177.572 43L177.7 44.376C178.564 43.416 179.684 42.648 180.996 42.648C182.244 42.648 182.98 43.288 183.3 44.376C184.164 43.416 185.284 42.648 186.692 42.648C188.516 42.648 189.412 43.928 189.412 46.296V59H186.116V47.544C186.116 46.168 185.732 45.688 184.9 45.688C184.324 45.688 183.812 45.944 183.332 46.424V59H180.804V47.512C180.804 46.168 180.452 45.688 179.652 45.688Z" fill="#718C00"/>
<path d="M151.697 61.176C150.545 63.416 147.057 64.792 139.473 64.44L139.953 61.144C145.425 61.56 148.177 61.176 148.849 60.536C149.489 59.896 149.201 57.784 149.073 55.032C147.345 56.696 145.105 57.976 143.025 57.976C139.953 57.976 138.161 55.032 142.577 43.128L145.905 43C142.321 53.112 143.153 54.936 144.849 54.936C145.937 54.936 147.505 54.136 149.073 52.632C149.265 47.864 151.409 42.744 152.593 42.744C153.489 42.744 154.961 43.128 154.961 43.8C154.961 45.304 153.745 49.368 151.985 52.568V52.76C151.985 55.896 152.657 59.256 151.697 61.176Z" fill="#4271AE"/>
<path d="M135.575 56.984C129.527 60.504 125.463 59.992 124.375 55.544C123.671 55.96 122.935 56.408 122.839 56.472L122.007 55.064C122.135 54.968 123.287 54.232 124.119 53.688C124.087 53.4 124.087 53.112 124.087 52.824C124.087 44.056 129.527 36.376 134.327 36.376C136.343 36.376 137.591 37.656 137.591 39.96C137.591 43.928 134.327 48.792 127.639 53.688C128.119 57.016 130.487 57.176 135.031 55.256L135.575 56.984ZM133.079 39.736C130.807 39.736 127.767 44.856 127.543 51.48C132.407 47.384 134.423 43.8 134.423 41.432C134.423 40.28 133.847 39.736 133.079 39.736Z" fill="#4271AE"/>
<path d="M110.877 56.536C113.437 56.536 115.613 52.536 115.613 48.92C115.613 46.808 114.781 45.88 113.725 45.88C112.573 45.88 110.845 46.904 109.469 48.248C109.245 49.528 108.637 52.728 107.997 55.992C109.149 56.376 110.205 56.536 110.877 56.536ZM106.365 64.376L103.005 64.632C104.989 54.2 106.205 48.152 106.909 43.16L110.237 42.968C110.205 43.192 109.981 44.664 109.789 45.88C111.613 44.12 113.789 42.68 115.517 42.68C117.469 42.68 119.037 44.408 119.037 47.96C119.037 53.72 115.197 59.384 109.213 59.384C108.637 59.384 108.029 59.352 107.357 59.256C106.909 61.656 106.493 63.672 106.365 64.376Z" fill="#4271AE"/>
<path d="M93.2835 56.536C95.8435 56.536 98.0195 52.536 98.0195 48.92C98.0195 46.808 97.1875 45.88 96.1315 45.88C94.9795 45.88 93.2515 46.904 91.8755 48.248C91.6515 49.528 91.0435 52.728 90.4035 55.992C91.5555 56.376 92.6115 56.536 93.2835 56.536ZM88.7715 64.376L85.4115 64.632C87.3955 54.2 88.6115 48.152 89.3155 43.16L92.6435 42.968C92.6115 43.192 92.3875 44.664 92.1955 45.88C94.0195 44.12 96.1955 42.68 97.9235 42.68C99.8755 42.68 101.444 44.408 101.444 47.96C101.444 53.72 97.6035 59.384 91.6195 59.384C91.0435 59.384 90.4355 59.352 89.7635 59.256C89.3155 61.656 88.8995 63.672 88.7715 64.376Z" fill="#4271AE"/>
<path d="M74.0577 56.152C75.1457 56.152 76.8097 55.16 78.2177 53.848C78.5377 52.312 79.2737 48.568 79.7217 46.136C78.6657 45.784 77.6417 45.624 77.0017 45.624C74.4737 45.624 72.3297 49.784 72.3297 53.592C72.3297 55.416 73.0977 56.152 74.0577 56.152ZM84.1057 57.688C79.1777 60.632 77.7377 59.448 77.9937 56.12C76.1377 57.912 73.9617 59.384 72.2337 59.384C70.3137 59.384 68.8737 57.784 68.8737 54.424C68.8737 48.504 72.7137 42.744 78.7937 42.744C80.2337 42.744 81.8978 42.968 83.5618 43.448L81.3857 54.712C81.0337 56.472 81.1617 56.76 83.7857 55.96L84.1057 57.688Z" fill="#4271AE"/>
<path d="M62.768 35.64L65.168 37.784C58.832 42.904 56.784 46.712 56.784 50.616C56.784 54.552 58.928 58.456 65.072 63.448L62.608 65.656C55.888 59.896 53.264 55.32 53.264 50.776C53.264 46.104 55.952 41.432 62.768 35.64Z" fill="#8959A8"/>
<path d="M552.302 110.656L549.87 108.48C556.206 103.392 558.254 99.552 558.254 95.68C558.254 91.776 556.142 87.84 549.966 82.848L552.43 80.64C559.15 86.4 561.806 90.976 561.806 95.52C561.806 100.16 559.118 104.864 552.302 110.656Z" fill="#3E999F"/>
<path d="M544.66 104.256C537.492 104.384 535.156 102.784 535.156 98.688V90.784H531.892L532.212 88.064H535.156V83.776L538.676 83.456V88.064H544.692V90.784H538.676V98.144C538.676 100.64 540.18 101.216 545.044 101.312L544.66 104.256Z" fill="#718C00"/>
<path d="M520.442 101.344C522.874 101.344 524.762 99.616 524.762 96.096C524.762 92.416 523.194 90.56 521.05 90.56C520.09 90.56 519.098 90.944 518.234 91.584C518.266 93.856 518.33 96.8 518.362 100.96C519.066 101.216 519.674 101.344 520.442 101.344ZM518.362 109.248L514.81 109.568V104.096C514.81 95.872 514.778 91.36 514.618 88.192L517.882 88L518.042 89.632C519.162 88.544 520.634 87.648 522.49 87.648C525.818 87.648 528.282 90.592 528.282 95.232C528.282 101.056 524.186 104.416 519.194 104.416C518.906 104.416 518.65 104.416 518.362 104.384V109.248Z" fill="#718C00"/>
<path d="M509.504 104.384C499.2 104.48 496.48 101.504 496.48 96.32C496.48 91.424 500.064 87.648 504.256 87.648C508.736 87.648 510.88 91.168 510.304 96.704L500.032 96.992C500.416 100.192 502.816 101.248 509.856 101.408L509.504 104.384ZM503.616 90.56C501.44 90.56 500.16 91.904 500 94.88C501.696 94.816 504.928 94.72 506.912 94.656C506.816 92.128 505.824 90.56 503.616 90.56Z" fill="#718C00"/>
<path d="M479.366 96.288C479.366 91.84 482.31 87.872 491.846 87.84L492.07 91.2C484.102 90.944 482.887 92.768 482.887 95.84C482.887 99.936 485.126 101.6 492.294 101.184L491.943 104.128C481.991 104.96 479.366 101.216 479.366 96.288Z" fill="#718C00"/>
<path d="M461.773 96.288C461.773 91.84 464.717 87.872 474.253 87.84L474.477 91.2C466.509 90.944 465.293 92.768 465.293 95.84C465.293 99.936 467.533 101.6 474.701 101.184L474.349 104.128C464.397 104.96 461.773 101.216 461.773 96.288Z" fill="#718C00"/>
<path d="M449.971 101.664C451.187 101.664 452.499 101.184 453.619 100.416C453.555 99.488 453.555 98.432 453.523 97.12C448.595 96.608 447.283 97.664 447.283 99.424C447.283 100.832 448.339 101.664 449.971 101.664ZM454.067 104.096C454.035 103.968 453.875 102.944 453.779 102.176C452.563 103.36 450.867 104.416 448.563 104.416C445.715 104.416 443.763 102.848 443.763 100.256C443.763 97.056 446.771 94.496 453.491 94.784C453.299 91.712 451.539 90.976 444.691 90.752L445.043 87.744C454.643 87.904 457.043 89.888 457.043 96.096C457.043 99.2 457.171 101.728 457.331 103.936L454.067 104.096Z" fill="#718C00"/>
<path d="M421.535 104.384C411.231 104.48 408.512 101.504 408.512 96.32C408.512 91.424 412.096 87.648 416.288 87.648C420.768 87.648 422.912 91.168 422.336 96.704L412.064 96.992C412.448 100.192 414.848 101.248 421.888 101.408L421.535 104.384ZM415.647 90.56C413.471 90.56 412.191 91.904 412.031 94.88C413.727 94.816 416.96 94.72 418.944 94.656C418.848 92.128 417.855 90.56 415.647 90.56Z" fill="#718C00"/>
<path d="M392.998 109.6L392.678 106.4C399.75 105.824 400.582 105.28 400.678 101.248C399.622 102.016 398.278 102.592 396.582 102.592C393.254 102.592 390.726 100.064 390.726 95.968C390.726 90.912 394.662 87.68 399.366 87.68C400.966 87.68 402.566 87.968 404.166 88.448C404.23 90.208 404.262 97.088 404.262 99.68C404.262 105.504 402.086 109.152 392.998 109.6ZM397.958 99.808C398.886 99.808 399.814 99.552 400.678 99.136V91.104C399.782 90.848 398.918 90.688 398.086 90.688C395.814 90.688 394.246 92.192 394.246 95.136C394.246 98.304 395.878 99.808 397.958 99.808Z" fill="#718C00"/>
<path d="M380.652 90.688C379.436 90.688 378.412 91.104 377.42 91.744C377.484 94.72 377.548 98.88 377.548 104H373.964C373.964 96.832 373.9 91.808 373.708 88.192L377.004 88L377.196 89.824C378.476 88.672 380.108 87.648 382.316 87.648C385.1 87.648 386.892 89.28 386.892 93.152V104H383.34V94.4C383.34 91.584 382.284 90.688 380.652 90.688Z" fill="#718C00"/>
<path d="M362.002 101.664C363.218 101.664 364.53 101.184 365.65 100.416C365.586 99.488 365.586 98.432 365.554 97.12C360.626 96.608 359.314 97.664 359.314 99.424C359.314 100.832 360.37 101.664 362.002 101.664ZM366.098 104.096C366.066 103.968 365.906 102.944 365.81 102.176C364.594 103.36 362.898 104.416 360.594 104.416C357.746 104.416 355.794 102.848 355.794 100.256C355.794 97.056 358.802 94.496 365.522 94.784C365.33 91.712 363.57 90.976 356.722 90.752L357.074 87.744C366.674 87.904 369.074 89.888 369.074 96.096C369.074 99.2 369.202 101.728 369.362 103.936L366.098 104.096Z" fill="#718C00"/>
<path d="M345.464 90.688C344.28 90.688 343.256 91.072 342.328 91.648V104H338.776V81.568L342.328 81.248V89.504C343.544 88.48 345.112 87.648 347.128 87.648C349.912 87.648 351.704 89.28 351.704 93.152V104H348.152V94.4C348.152 91.584 347.128 90.688 345.464 90.688Z" fill="#718C00"/>
<path d="M321.023 96.288C321.023 91.84 323.967 87.872 333.503 87.84L333.727 91.2C325.759 90.944 324.543 92.768 324.543 95.84C324.543 99.936 326.783 101.6 333.951 101.184L333.599 104.128C323.647 104.96 321.023 101.216 321.023 96.288Z" fill="#718C00"/>
<path d="M298.891 102.144C289.867 106.72 285.227 103.552 285.227 98.304C285.227 93.216 289.515 87.616 295.019 87.616C297.931 87.616 299.691 89.152 299.691 91.616C299.691 95.296 295.787 97.568 288.523 98.08C288.619 101.6 291.115 102.272 298.507 100.384L298.891 102.144ZM294.123 90.432C291.307 90.432 289.259 93.248 288.683 96.192C293.483 95.808 296.459 94.592 296.459 92.352C296.459 91.232 295.563 90.432 294.123 90.432Z" fill="#4271AE"/>
<path d="M281.106 99.392C281.106 102.08 278.578 104.544 269.618 104.256L269.682 101.152C275.986 101.6 277.682 100.928 277.682 99.584C277.682 98.144 275.634 96.416 274.162 94.4C272.754 95.424 271.026 96.544 268.85 97.696L268.082 96.128C270.386 94.624 271.986 93.504 273.074 92.512C272.818 91.936 272.69 91.36 272.69 90.752C272.69 88.576 274.802 86.912 276.754 86.912C278.994 86.912 279.762 88.96 276.85 92.064C278.066 94.24 281.106 96.768 281.106 99.392Z" fill="#4271AE"/>
<path d="M249.816 97.856C249.816 92.352 253.496 87.616 258.456 87.616C262.136 87.616 264.504 90.048 264.504 94.176C264.504 99.744 260.824 104.416 255.864 104.416C252.152 104.416 249.816 102.016 249.816 97.856ZM261.048 94.624C261.048 91.968 259.896 90.464 257.976 90.464C255.192 90.464 253.272 93.824 253.272 97.408C253.272 100.064 254.424 101.568 256.344 101.568C259.128 101.568 261.048 98.24 261.048 94.624Z" fill="#4271AE"/>
<path d="M238.846 101.536C241.406 101.536 243.582 97.536 243.582 93.92C243.582 91.808 242.75 90.88 241.694 90.88C240.542 90.88 238.814 91.904 237.438 93.248C237.214 94.528 236.606 97.728 235.966 100.992C237.118 101.376 238.174 101.536 238.846 101.536ZM234.334 109.376L230.974 109.632C232.958 99.2 234.174 93.152 234.878 88.16L238.206 87.968C238.174 88.192 237.95 89.664 237.758 90.88C239.582 89.12 241.758 87.68 243.486 87.68C245.438 87.68 247.006 89.408 247.006 92.96C247.006 98.72 243.166 104.384 237.182 104.384C236.606 104.384 235.998 104.352 235.326 104.256C234.878 106.656 234.462 108.672 234.334 109.376Z" fill="#4271AE"/>
<path d="M219.62 101.152C220.708 101.152 222.372 100.16 223.78 98.848C224.1 97.312 224.836 93.568 225.284 91.136C224.228 90.784 223.204 90.624 222.564 90.624C220.036 90.624 217.892 94.784 217.892 98.592C217.892 100.416 218.66 101.152 219.62 101.152ZM229.668 102.688C224.74 105.632 223.3 104.448 223.556 101.12C221.7 102.912 219.524 104.384 217.796 104.384C215.876 104.384 214.436 102.784 214.436 99.424C214.436 93.504 218.276 87.744 224.356 87.744C225.796 87.744 227.46 87.968 229.124 88.448L226.948 99.712C226.596 101.472 226.724 101.76 229.348 100.96L229.668 102.688Z" fill="#4271AE"/>
<path d="M210.41 102.336C202.154 106.624 198.987 103.84 200.171 98.528L201.898 90.816H198.954L199.627 88.16H201.547L204.299 83.712L206.891 83.52L205.867 88.16H211.627L211.115 90.816H205.258L203.594 98.336C202.89 101.376 203.851 102.304 210.187 100.608L210.41 102.336Z" fill="#4271AE"/>
<path d="M189.041 104.064L186.193 97.984L181.233 104H177.585L184.561 96.032L180.657 88.16L184.433 88L187.313 94.08L192.273 88.064H195.921L188.945 96.032L192.849 103.904L189.041 104.064Z" fill="#4271AE"/>
<path d="M177.079 102.688C172.247 105.568 170.615 104.512 170.967 101.152C169.047 103.296 167.255 104.416 165.463 104.416C163.031 104.416 161.879 102.464 162.743 98.528L163.895 93.184L162.327 92.16L165.015 88.128L168.375 87.904L166.167 98.08C165.687 100.224 166.103 101.152 167.319 101.152C168.471 101.152 169.911 100.224 171.447 98.4L173.463 88.064H176.791L174.519 99.712C174.167 101.472 174.295 101.824 176.759 100.96L177.079 102.688Z" fill="#4271AE"/>
<path d="M157.373 85.472L153.693 85.632L154.781 81.184L158.717 80.992L157.373 85.472ZM142.557 109.536L142.845 106.24C148.893 106.4 149.661 106.336 150.237 105.76C151.261 104.704 150.141 100.736 152.541 90.912L146.557 91.296L146.301 89.536L153.469 88.032L156.637 88.064C152.861 100.8 154.941 105.472 152.669 107.776C151.325 109.12 149.245 109.472 142.557 109.536Z" fill="#4271AE"/>
<path d="M137.956 80.64L140.355 82.784C134.019 87.904 131.972 91.712 131.972 95.616C131.972 99.552 134.115 103.456 140.259 108.448L137.796 110.656C131.076 104.896 128.451 100.32 128.451 95.776C128.451 91.104 131.14 86.432 137.956 80.64Z" fill="#3E999F"/>
<path d="M120.362 80.64L122.762 82.784C116.426 87.904 114.378 91.712 114.378 95.616C114.378 99.552 116.522 103.456 122.666 108.448L120.202 110.656C113.482 104.896 110.858 100.32 110.858 95.776C110.858 91.104 113.546 86.432 120.362 80.64Z" fill="#F5871F"/>
<path d="M283.208 155.656L280.776 153.48C287.112 148.392 289.16 144.552 289.16 140.68C289.16 136.776 287.048 132.84 280.872 127.848L283.336 125.64C290.056 131.4 292.712 135.976 292.712 140.52C292.712 145.16 290.024 149.864 283.208 155.656Z" fill="#8959A8"/>
<path d="M265.614 155.656L263.182 153.48C269.518 148.392 271.566 144.552 271.566 140.68C271.566 136.776 269.454 132.84 263.278 127.848L265.742 125.64C272.462 131.4 275.118 135.976 275.118 140.52C275.118 145.16 272.43 149.864 265.614 155.656Z" fill="#F5871F"/>
<path d="M245.428 154.664L245.14 151.464C248.916 150.92 249.908 150.568 250.836 148.424L250.228 148.2C248.724 144.84 245.428 136.36 244.212 133.192L247.828 132.936C249.14 136.456 250.836 141.256 252.308 144.776H252.628C253.62 141.704 255.796 134.12 256.212 133.064H259.636C258.484 136.68 256.916 141.48 255.156 146.216C252.852 152.648 251.156 154.152 245.428 154.664Z" fill="#718C00"/>
<path d="M240.379 149.256C233.211 149.384 230.875 147.784 230.875 143.688V135.784H227.611L227.931 133.064H230.875V128.776L234.395 128.456V133.064H240.411V135.784H234.395V143.144C234.395 145.64 235.899 146.216 240.763 146.312L240.379 149.256Z" fill="#718C00"/>
<path d="M219.169 130.664H215.489L215.713 126.184H219.457L219.169 130.664ZM224.513 149H210.145V146.312H215.681V135.848L210.081 135.592L210.369 133.064H219.265V146.312H224.801L224.513 149Z" fill="#718C00"/>
<path d="M205.191 149.256C198.023 149.384 195.687 147.784 195.687 143.688V135.784H192.423L192.743 133.064H195.687V128.776L199.207 128.456V133.064H205.223V135.784H199.207V143.144C199.207 145.64 200.711 146.216 205.575 146.312L205.191 149.256Z" fill="#718C00"/>
<path d="M181.933 135.688C180.717 135.688 179.693 136.104 178.701 136.744C178.765 139.72 178.829 143.88 178.829 149H175.245C175.245 141.832 175.181 136.808 174.989 133.192L178.285 133L178.477 134.824C179.757 133.672 181.389 132.648 183.597 132.648C186.381 132.648 188.173 134.28 188.173 138.152V149H184.621V139.4C184.621 136.584 183.565 135.688 181.933 135.688Z" fill="#718C00"/>
<path d="M170.036 149.384C159.732 149.48 157.012 146.504 157.012 141.32C157.012 136.424 160.596 132.648 164.788 132.648C169.268 132.648 171.412 136.168 170.836 141.704L160.564 141.992C160.948 145.192 163.348 146.248 170.388 146.408L170.036 149.384ZM164.148 135.56C161.972 135.56 160.692 136.904 160.532 139.88C162.228 139.816 165.46 139.72 167.444 139.656C167.348 137.128 166.356 135.56 164.148 135.56Z" fill="#718C00"/>
<path d="M146.458 146.504C147.514 146.504 148.41 146.12 149.178 145.512C149.114 143.048 149.082 139.944 149.082 136.104C148.282 135.848 147.514 135.688 146.81 135.688C144.378 135.688 142.682 137.48 142.682 141C142.682 144.776 144.25 146.504 146.458 146.504ZM149.562 149.096L149.37 147.496C148.282 148.552 146.81 149.416 144.986 149.416C141.626 149.416 139.162 146.632 139.162 141.896C139.162 136.008 143.29 132.648 148.346 132.648C148.602 132.648 148.826 132.648 149.082 132.68V126.568L152.634 126.248V133.032C152.634 140.488 152.698 145.384 152.858 148.904L149.562 149.096Z" fill="#718C00"/>
<path d="M131.2 130.664H127.52L127.744 126.184H131.488L131.2 130.664ZM136.544 149H122.176V146.312H127.712V135.848L122.112 135.592L122.4 133.064H131.296V146.312H136.832L136.544 149Z" fill="#718C00"/>
</g>
<defs>
<clipPath id="clip0_1_8">
<rect width="700" height="180" fill="white"/>
</clipPath>
</defs>
</svg>