<svg width="700" height="180" viewBox="0 0 700 180" fill="none" xmlns="http://www.w3.org/2000/svg">
<g clip-path="url(#clip0_3_2)">
<path d="M692 0H8C3.58172 0 0 3.58172 0 8V172C0 176.418 3.58172 180 8 180H692C696.418 180 700 176.418 700 172V8C700 3.58172 696.418 0 692 0Z" fill="#F8F8F8"/>
<path d="M225.536 60V43.104H228.624L228.896 45.296C229.6 44.432 230.431 43.776 231.391 43.328C232.351 42.88 233.338 42.656 234.352 42.656C235.93 42.656 237.109 43.0987 237.887 43.984C238.677 44.8587 239.072 46.0907 239.072 47.68V60H235.488V49.456C235.488 48.4747 235.429 47.6853 235.311 47.088C235.194 46.4907 234.959 46.0587 234.607 45.792C234.266 45.5253 233.754 45.392 233.072 45.392C232.528 45.392 232.01 45.5093 231.52 45.744C231.029 45.9787 230.581 46.288 230.176 46.672C229.77 47.0453 229.418 47.4453 229.12 47.872V60H225.536Z" fill="#718C00"/>
<path d="M215.58 43.104V57.376H220.172V60H206.94V57.376H211.996V45.728H207.1V43.104H215.58ZM213.084 34.832C213.788 34.832 214.353 35.0453 214.78 35.472C215.217 35.8987 215.436 36.432 215.436 37.072C215.436 37.712 215.217 38.2507 214.78 38.688C214.353 39.1253 213.788 39.344 213.084 39.344C212.401 39.344 211.841 39.1253 211.404 38.688C210.967 38.2507 210.748 37.712 210.748 37.072C210.748 36.432 210.967 35.8987 211.404 35.472C211.841 35.0453 212.401 34.832 213.084 34.832Z" fill="#718C00"/>
<path d="M198.809 42.656C199.449 42.656 200.024 42.7947 200.536 43.072C201.048 43.3493 201.448 43.8347 201.736 44.528C202.035 45.2213 202.185 46.192 202.185 47.44V60H199.001V47.936C199.001 47.0507 198.937 46.416 198.809 46.032C198.691 45.648 198.377 45.456 197.865 45.456C197.459 45.456 197.049 45.584 196.633 45.84C196.217 46.0853 195.795 46.512 195.368 47.12V60H192.473V47.936C192.473 47.0507 192.409 46.416 192.281 46.032C192.163 45.648 191.849 45.456 191.337 45.456C190.921 45.456 190.505 45.584 190.089 45.84C189.683 46.0853 189.267 46.512 188.84 47.12V60H185.641V43.104H188.344L188.585 44.928C189.065 44.256 189.587 43.712 190.152 43.296C190.718 42.8693 191.401 42.656 192.201 42.656C192.841 42.656 193.422 42.816 193.945 43.136C194.467 43.456 194.851 44.016 195.096 44.816C195.566 44.176 196.099 43.6587 196.697 43.264C197.294 42.8587 197.998 42.656 198.809 42.656Z" fill="#718C00"/>
<path d="M163.57 43.104L157.745 60.064C157.308 61.344 156.748 62.4693 156.065 63.44C155.383 64.4213 154.508 65.2107 153.441 65.808C152.375 66.4053 151.052 66.7733 149.474 66.912L149.009 64.224C150.151 64.0427 151.057 63.776 151.729 63.424C152.412 63.0827 152.951 62.6293 153.345 62.064C153.751 61.4987 154.108 60.8107 154.418 60H153.201L147.506 43.104H151.313L155.57 57.504L159.89 43.104H163.57Z" fill="#4271AE"/>
<path d="M137.022 36.32V55.392C137.022 56.1707 137.257 56.7253 137.726 57.056C138.206 57.376 138.825 57.536 139.582 57.536C140.073 57.536 140.537 57.4827 140.974 57.376C141.411 57.2693 141.838 57.136 142.254 56.976L143.166 59.472C142.665 59.728 142.046 59.952 141.31 60.144C140.585 60.336 139.753 60.432 138.814 60.432C137.118 60.432 135.795 59.9573 134.846 59.008C133.907 58.048 133.438 56.736 133.438 55.072V38.96H128.334V36.32H137.022Z" fill="#4271AE"/>
<path d="M118.65 42.656C120.144 42.656 121.338 43.024 122.234 43.76C123.13 44.4853 123.781 45.5147 124.187 46.848C124.592 48.1707 124.795 49.728 124.795 51.52C124.795 53.2373 124.549 54.768 124.059 56.112C123.568 57.456 122.837 58.512 121.867 59.28C120.907 60.048 119.712 60.432 118.283 60.432C116.512 60.432 115.082 59.808 113.994 58.56V66.496L110.41 66.896V43.104H113.531L113.755 45.28C114.395 44.4053 115.136 43.7493 115.979 43.312C116.832 42.8747 117.722 42.656 118.65 42.656ZM117.659 45.424C116.859 45.424 116.155 45.664 115.547 46.144C114.939 46.624 114.421 47.1893 113.994 47.84V55.744C114.4 56.352 114.88 56.8213 115.435 57.152C116 57.472 116.635 57.632 117.339 57.632C118.544 57.632 119.461 57.1467 120.09 56.176C120.72 55.2053 121.035 53.6587 121.035 51.536C121.035 50.096 120.906 48.928 120.65 48.032C120.405 47.1253 120.032 46.464 119.531 46.048C119.04 45.632 118.416 45.424 117.659 45.424Z" fill="#4271AE"/>
<path d="M99.463 42.656C100.956 42.656 102.151 43.024 103.047 43.76C103.943 44.4853 104.594 45.5147 104.999 46.848C105.404 48.1707 105.607 49.728 105.607 51.52C105.607 53.2373 105.362 54.768 104.871 56.112C104.38 57.456 103.65 58.512 102.679 59.28C101.719 60.048 100.524 60.432 99.095 60.432C97.3243 60.432 95.895 59.808 94.807 58.56V66.496L91.223 66.896V43.104H94.343L94.567 45.28C95.207 44.4053 95.9483 43.7493 96.791 43.312C97.6443 42.8747 98.535 42.656 99.463 42.656ZM98.471 45.424C97.671 45.424 96.967 45.664 96.359 46.144C95.751 46.624 95.2337 47.1893 94.807 47.84V55.744C95.2123 56.352 95.6923 56.8213 96.247 57.152C96.8123 57.472 97.447 57.632 98.151 57.632C99.3563 57.632 100.274 57.1467 100.903 56.176C101.532 55.2053 101.847 53.6587 101.847 51.536C101.847 50.096 101.719 48.928 101.463 48.032C101.218 47.1253 100.844 46.464 100.343 46.048C99.8523 45.632 99.2283 45.424 98.471 45.424Z" fill="#4271AE"/>
<path d="M84.9475 55.856C84.9475 56.5173 85.0488 57.0027 85.2515 57.312C85.4542 57.6107 85.7795 57.8347 86.2275 57.984L85.4275 60.416C84.5955 60.32 83.8808 60.0907 83.2835 59.728C82.6862 59.3653 82.2328 58.816 81.9235 58.08C81.3048 58.8587 80.5208 59.4453 79.5715 59.84C78.6222 60.2347 77.6088 60.432 76.5315 60.432C74.8248 60.432 73.4702 59.952 72.4675 58.992C71.4755 58.0213 70.9795 56.752 70.9795 55.184C70.9795 53.4027 71.6728 52.032 73.0595 51.072C74.4462 50.112 76.4302 49.632 79.0115 49.632H81.4275V48.528C81.4275 47.44 81.0968 46.656 80.4355 46.176C79.7848 45.696 78.8622 45.456 77.6675 45.456C77.1128 45.456 76.4408 45.5307 75.6515 45.68C74.8622 45.8187 74.0355 46.0373 73.1715 46.336L72.2915 43.808C73.3475 43.4133 74.3822 43.1253 75.3955 42.944C76.4088 42.752 77.3475 42.656 78.2115 42.656C80.4728 42.656 82.1582 43.1573 83.2675 44.16C84.3875 45.1627 84.9475 46.5493 84.9475 48.32V55.856ZM77.6195 57.792C78.3448 57.792 79.0542 57.6 79.7475 57.216C80.4408 56.832 81.0008 56.2933 81.4275 55.6V51.872H79.4435C77.7582 51.872 76.5528 52.1547 75.8275 52.72C75.1022 53.2747 74.7395 54.0427 74.7395 55.024C74.7395 55.92 74.9795 56.608 75.4595 57.088C75.9502 57.5573 76.6702 57.792 77.6195 57.792Z" fill="#4271AE"/>
<path d="M57.392 48.8C57.392 50.336 57.5147 51.728 57.76 52.976C58.016 54.2133 58.4107 55.3707 58.944 56.448C59.4773 57.5147 60.1547 58.56 60.976 59.584C61.808 60.608 62.7947 61.6693 63.936 62.768L61.952 64.688C60.2347 63.2587 58.7573 61.776 57.52 60.24C56.2933 58.7147 55.3493 57.024 54.688 55.168C54.0267 53.312 53.696 51.1893 53.696 48.8C53.696 46.4 54.0267 44.272 54.688 42.416C55.3493 40.56 56.2933 38.8693 57.52 37.344C58.7573 35.808 60.2347 34.3307 61.952 32.912L63.936 34.832C62.816 35.9093 61.84 36.96 61.008 37.984C60.1867 38.9973 59.504 40.0427 58.96 41.12C58.4267 42.1973 58.032 43.36 57.776 44.608C57.52 45.856 57.392 47.2533 57.392 48.8Z" fill="#8959A8"/>
<path d="M600.683 93.8C600.683 92.2533 600.555 90.856 600.299 89.608C600.043 88.36 599.643 87.1973 599.099 86.12C598.566 85.0427 597.883 83.9973 597.051 82.984C596.23 81.96 595.259 80.9093 594.139 79.832L596.123 77.912C597.84 79.3307 599.312 80.808 600.539 82.344C601.776 83.8693 602.726 85.56 603.387 87.416C604.048 89.272 604.379 91.4 604.379 93.8C604.379 96.1893 604.048 98.312 603.387 100.168C602.726 102.024 601.776 103.715 600.539 105.24C599.312 106.776 597.84 108.259 596.123 109.688L594.139 107.768C595.28 106.669 596.262 105.608 597.083 104.584C597.915 103.56 598.598 102.515 599.131 101.448C599.664 100.371 600.054 99.2133 600.299 97.976C600.555 96.728 600.683 95.336 600.683 93.8Z" fill="#3E999F"/>
<path d="M586.647 104.104C586.029 104.499 585.287 104.819 584.423 105.064C583.559 105.309 582.658 105.432 581.719 105.432C579.757 105.432 578.263 104.925 577.239 103.912C576.226 102.888 575.719 101.544 575.719 99.88V90.712H571.959V88.104H575.719V84.328L579.303 83.896V88.104H584.999L584.599 90.712H579.303V99.848C579.303 100.755 579.527 101.432 579.975 101.88C580.434 102.317 581.181 102.536 582.215 102.536C582.834 102.536 583.405 102.461 583.927 102.312C584.45 102.163 584.925 101.971 585.351 101.736L586.647 104.104Z" fill="#718C00"/>
<path d="M561.588 87.656C563.081 87.656 564.276 88.024 565.172 88.76C566.068 89.4853 566.719 90.5147 567.124 91.848C567.529 93.1707 567.732 94.728 567.732 96.52C567.732 98.2373 567.487 99.768 566.996 101.112C566.505 102.456 565.775 103.512 564.804 104.28C563.844 105.048 562.649 105.432 561.22 105.432C559.449 105.432 558.02 104.808 556.932 103.56V111.496L553.348 111.896V88.104H556.468L556.692 90.28C557.332 89.4053 558.073 88.7493 558.916 88.312C559.769 87.8747 560.66 87.656 561.588 87.656ZM560.596 90.424C559.796 90.424 559.092 90.664 558.484 91.144C557.876 91.624 557.359 92.1893 556.932 92.84V100.744C557.337 101.352 557.817 101.821 558.372 102.152C558.937 102.472 559.572 102.632 560.276 102.632C561.481 102.632 562.399 102.147 563.028 101.176C563.657 100.205 563.972 98.6587 563.972 96.536C563.972 95.096 563.844 93.928 563.588 93.032C563.343 92.1253 562.969 91.464 562.468 91.048C561.977 90.632 561.353 90.424 560.596 90.424Z" fill="#718C00"/>
<path d="M537.137 97.704C537.211 98.856 537.456 99.8 537.872 100.536C538.288 101.261 538.832 101.795 539.504 102.136C540.187 102.477 540.934 102.648 541.745 102.648C542.577 102.648 543.344 102.52 544.048 102.264C544.752 102.008 545.462 101.645 546.177 101.176L547.729 103.32C546.939 103.96 546.017 104.472 544.961 104.856C543.905 105.24 542.774 105.432 541.569 105.432C539.819 105.432 538.337 105.059 537.121 104.312C535.915 103.565 534.998 102.525 534.368 101.192C533.739 99.8587 533.424 98.3173 533.424 96.568C533.424 94.872 533.734 93.3573 534.353 92.024C534.971 90.68 535.857 89.6187 537.009 88.84C538.161 88.0507 539.537 87.656 541.137 87.656C542.641 87.656 543.931 87.9973 545.009 88.68C546.097 89.3627 546.934 90.3333 547.521 91.592C548.118 92.84 548.417 94.344 548.417 96.104C548.417 96.392 548.406 96.68 548.384 96.968C548.374 97.2453 548.358 97.4907 548.336 97.704H537.137ZM541.168 90.312C540.048 90.312 539.12 90.712 538.384 91.512C537.659 92.312 537.238 93.56 537.121 95.256H544.944C544.912 93.6667 544.571 92.4453 543.921 91.592C543.281 90.7387 542.363 90.312 541.168 90.312Z" fill="#718C00"/>
<path d="M523.117 102.488C523.906 102.488 524.642 102.355 525.325 102.088C526.008 101.811 526.658 101.453 527.277 101.016L528.941 103.32C528.205 103.949 527.309 104.461 526.253 104.856C525.208 105.24 524.125 105.432 523.005 105.432C521.277 105.432 519.8 105.069 518.573 104.344C517.346 103.608 516.408 102.579 515.757 101.256C515.106 99.9333 514.781 98.392 514.781 96.632C514.781 94.9147 515.106 93.384 515.757 92.04C516.418 90.6853 517.368 89.6187 518.605 88.84C519.842 88.0507 521.33 87.656 523.069 87.656C524.221 87.656 525.282 87.8267 526.253 88.168C527.224 88.5093 528.114 89.016 528.925 89.688L527.277 91.944C526.616 91.4853 525.938 91.1387 525.245 90.904C524.562 90.6587 523.858 90.536 523.133 90.536C521.8 90.536 520.706 91.0267 519.853 92.008C519.01 92.9893 518.589 94.5307 518.589 96.632C518.589 98.04 518.781 99.176 519.165 100.04C519.56 100.893 520.098 101.517 520.781 101.912C521.464 102.296 522.242 102.488 523.117 102.488Z" fill="#718C00"/>
<path d="M503.93 102.488C504.719 102.488 505.455 102.355 506.138 102.088C506.82 101.811 507.471 101.453 508.09 101.016L509.754 103.32C509.018 103.949 508.121 104.461 507.065 104.856C506.02 105.24 504.938 105.432 503.818 105.432C502.09 105.432 500.612 105.069 499.385 104.344C498.159 103.608 497.22 102.579 496.569 101.256C495.919 99.9333 495.594 98.392 495.594 96.632C495.594 94.9147 495.919 93.384 496.569 92.04C497.231 90.6853 498.18 89.6187 499.418 88.84C500.655 88.0507 502.143 87.656 503.882 87.656C505.034 87.656 506.095 87.8267 507.065 88.168C508.036 88.5093 508.927 89.016 509.737 89.688L508.09 91.944C507.428 91.4853 506.751 91.1387 506.057 90.904C505.375 90.6587 504.671 90.536 503.945 90.536C502.612 90.536 501.519 91.0267 500.665 92.008C499.823 92.9893 499.401 94.5307 499.401 96.632C499.401 98.04 499.594 99.176 499.978 100.04C500.372 100.893 500.911 101.517 501.594 101.912C502.276 102.296 503.055 102.488 503.93 102.488Z" fill="#718C00"/>
<path d="M489.51 100.856C489.51 101.517 489.611 102.003 489.814 102.312C490.017 102.611 490.342 102.835 490.79 102.984L489.99 105.416C489.158 105.32 488.443 105.091 487.846 104.728C487.249 104.365 486.795 103.816 486.486 103.08C485.867 103.859 485.083 104.445 484.134 104.84C483.185 105.235 482.171 105.432 481.094 105.432C479.387 105.432 478.033 104.952 477.03 103.992C476.038 103.021 475.542 101.752 475.542 100.184C475.542 98.4027 476.235 97.032 477.622 96.072C479.009 95.112 480.993 94.632 483.574 94.632H485.99V93.528C485.99 92.44 485.659 91.656 484.998 91.176C484.347 90.696 483.425 90.456 482.23 90.456C481.675 90.456 481.003 90.5307 480.214 90.68C479.425 90.8187 478.598 91.0373 477.734 91.336L476.854 88.808C477.91 88.4133 478.945 88.1253 479.958 87.944C480.971 87.752 481.91 87.656 482.774 87.656C485.035 87.656 486.721 88.1573 487.83 89.16C488.95 90.1627 489.51 91.5493 489.51 93.32V100.856ZM482.182 102.792C482.907 102.792 483.617 102.6 484.31 102.216C485.003 101.832 485.563 101.293 485.99 100.6V96.872H484.006C482.321 96.872 481.115 97.1547 480.39 97.72C479.665 98.2747 479.302 99.0427 479.302 100.024C479.302 100.92 479.542 101.608 480.022 102.088C480.513 102.557 481.233 102.792 482.182 102.792Z" fill="#718C00"/>
<path d="M441.199 97.704C441.274 98.856 441.519 99.8 441.935 100.536C442.351 101.261 442.895 101.795 443.567 102.136C444.25 102.477 444.996 102.648 445.807 102.648C446.639 102.648 447.407 102.52 448.111 102.264C448.815 102.008 449.524 101.645 450.239 101.176L451.791 103.32C451.002 103.96 450.079 104.472 449.023 104.856C447.967 105.24 446.836 105.432 445.631 105.432C443.882 105.432 442.399 105.059 441.183 104.312C439.978 103.565 439.06 102.525 438.431 101.192C437.802 99.8587 437.487 98.3173 437.487 96.568C437.487 94.872 437.796 93.3573 438.415 92.024C439.034 90.68 439.919 89.6187 441.071 88.84C442.223 88.0507 443.599 87.656 445.199 87.656C446.703 87.656 447.994 87.9973 449.071 88.68C450.159 89.3627 450.996 90.3333 451.583 91.592C452.18 92.84 452.479 94.344 452.479 96.104C452.479 96.392 452.468 96.68 452.447 96.968C452.436 97.2453 452.42 97.4907 452.399 97.704H441.199ZM445.231 90.312C444.111 90.312 443.183 90.712 442.447 91.512C441.722 92.312 441.3 93.56 441.183 95.256H449.007C448.975 93.6667 448.634 92.4453 447.983 91.592C447.343 90.7387 446.426 90.312 445.231 90.312Z" fill="#718C00"/>
<path d="M433.26 85.96L434.22 88.936C433.548 89.16 432.806 89.3093 431.996 89.384C431.196 89.4587 430.3 89.496 429.308 89.496C430.321 89.944 431.084 90.52 431.596 91.224C432.108 91.9173 432.364 92.7707 432.364 93.784C432.364 94.8827 432.097 95.864 431.564 96.728C431.03 97.592 430.268 98.2693 429.276 98.76C428.284 99.2507 427.094 99.496 425.708 99.496C425.217 99.496 424.79 99.4747 424.428 99.432C424.076 99.3893 423.729 99.32 423.388 99.224C423.174 99.3733 422.993 99.576 422.844 99.832C422.705 100.077 422.636 100.339 422.636 100.616C422.636 100.957 422.774 101.256 423.052 101.512C423.34 101.757 423.905 101.88 424.748 101.88H427.692C428.897 101.88 429.958 102.088 430.876 102.504C431.804 102.909 432.529 103.469 433.052 104.184C433.585 104.888 433.852 105.688 433.852 106.584C433.852 108.269 433.126 109.576 431.676 110.504C430.225 111.432 428.134 111.896 425.404 111.896C423.473 111.896 421.958 111.699 420.86 111.304C419.761 110.909 418.988 110.323 418.54 109.544C418.092 108.765 417.868 107.811 417.868 106.68H421.084C421.084 107.267 421.196 107.752 421.42 108.136C421.654 108.52 422.086 108.808 422.716 109C423.345 109.192 424.252 109.288 425.436 109.288C426.62 109.288 427.558 109.187 428.252 108.984C428.956 108.792 429.462 108.509 429.772 108.136C430.092 107.773 430.252 107.336 430.252 106.824C430.252 106.141 429.953 105.613 429.356 105.24C428.758 104.867 427.958 104.68 426.956 104.68H424.06C422.46 104.68 421.286 104.355 420.54 103.704C419.804 103.053 419.436 102.296 419.436 101.432C419.436 100.856 419.596 100.301 419.916 99.768C420.246 99.2347 420.716 98.7707 421.324 98.376C420.31 97.8427 419.569 97.1973 419.1 96.44C418.641 95.672 418.412 94.744 418.412 93.656C418.412 92.4613 418.71 91.416 419.308 90.52C419.905 89.624 420.732 88.9253 421.788 88.424C422.854 87.9227 424.081 87.672 425.468 87.672C426.822 87.672 427.953 87.6027 428.86 87.464C429.766 87.3147 430.556 87.1067 431.228 86.84C431.91 86.5733 432.588 86.28 433.26 85.96ZM425.5 90.136C424.358 90.136 423.5 90.4613 422.924 91.112C422.348 91.752 422.06 92.5893 422.06 93.624C422.06 94.6907 422.353 95.5493 422.94 96.2C423.537 96.84 424.406 97.16 425.548 97.16C426.604 97.16 427.409 96.8507 427.964 96.232C428.529 95.6133 428.812 94.7333 428.812 93.592C428.812 92.44 428.534 91.576 427.98 91C427.425 90.424 426.598 90.136 425.5 90.136Z" fill="#718C00"/>
<path d="M399.848 105V88.104H402.936L403.208 90.296C403.912 89.432 404.744 88.776 405.704 88.328C406.664 87.88 407.651 87.656 408.664 87.656C410.243 87.656 411.421 88.0987 412.2 88.984C412.989 89.8587 413.384 91.0907 413.384 92.68V105H409.8V94.456C409.8 93.4747 409.741 92.6853 409.624 92.088C409.507 91.4907 409.272 91.0587 408.92 90.792C408.579 90.5253 408.067 90.392 407.384 90.392C406.84 90.392 406.323 90.5093 405.832 90.744C405.341 90.9787 404.893 91.288 404.488 91.672C404.083 92.0453 403.731 92.4453 403.432 92.872V105H399.848Z" fill="#718C00"/>
<path d="M393.573 100.856C393.573 101.517 393.674 102.003 393.877 102.312C394.079 102.611 394.405 102.835 394.853 102.984L394.053 105.416C393.221 105.32 392.506 105.091 391.909 104.728C391.311 104.365 390.858 103.816 390.549 103.08C389.93 103.859 389.146 104.445 388.197 104.84C387.247 105.235 386.234 105.432 385.157 105.432C383.45 105.432 382.095 104.952 381.093 103.992C380.101 103.021 379.605 101.752 379.605 100.184C379.605 98.4027 380.298 97.032 381.685 96.072C383.071 95.112 385.055 94.632 387.637 94.632H390.053V93.528C390.053 92.44 389.722 91.656 389.061 91.176C388.41 90.696 387.487 90.456 386.293 90.456C385.738 90.456 385.066 90.5307 384.277 90.68C383.487 90.8187 382.661 91.0373 381.797 91.336L380.917 88.808C381.973 88.4133 383.007 88.1253 384.021 87.944C385.034 87.752 385.973 87.656 386.837 87.656C389.098 87.656 390.783 88.1573 391.893 89.16C393.013 90.1627 393.573 91.5493 393.573 93.32V100.856ZM386.245 102.792C386.97 102.792 387.679 102.6 388.373 102.216C389.066 101.832 389.626 101.293 390.053 100.6V96.872H388.069C386.383 96.872 385.178 97.1547 384.453 97.72C383.727 98.2747 383.365 99.0427 383.365 100.024C383.365 100.92 383.605 101.608 384.085 102.088C384.575 102.557 385.295 102.792 386.245 102.792Z" fill="#718C00"/>
<path d="M365.057 80.968V90.168C365.74 89.336 366.54 88.712 367.457 88.296C368.374 87.8693 369.318 87.656 370.289 87.656C371.878 87.656 373.062 88.0987 373.841 88.984C374.62 89.8587 375.009 91.0907 375.009 92.68V105H371.425V93.24C371.425 92.2267 371.233 91.5013 370.849 91.064C370.465 90.616 369.846 90.392 368.993 90.392C368.46 90.392 367.948 90.5147 367.457 90.76C366.977 90.9947 366.529 91.304 366.113 91.688C365.708 92.072 365.356 92.4827 365.057 92.92V105H361.473V81.352L365.057 80.968Z" fill="#718C00"/>
<path d="M350.43 102.488C351.219 102.488 351.955 102.355 352.638 102.088C353.32 101.811 353.971 101.453 354.59 101.016L356.254 103.32C355.518 103.949 354.622 104.461 353.566 104.856C352.52 105.24 351.438 105.432 350.318 105.432C348.59 105.432 347.112 105.069 345.886 104.344C344.659 103.608 343.72 102.579 343.07 101.256C342.419 99.9333 342.094 98.392 342.094 96.632C342.094 94.9147 342.419 93.384 343.07 92.04C343.731 90.6853 344.68 89.6187 345.918 88.84C347.155 88.0507 348.643 87.656 350.382 87.656C351.534 87.656 352.595 87.8267 353.566 88.168C354.536 88.5093 355.427 89.016 356.238 89.688L354.59 91.944C353.928 91.4853 353.251 91.1387 352.558 90.904C351.875 90.6587 351.171 90.536 350.446 90.536C349.112 90.536 348.019 91.0267 347.166 92.008C346.323 92.9893 345.902 94.5307 345.902 96.632C345.902 98.04 346.094 99.176 346.478 100.04C346.872 100.893 347.411 101.517 348.094 101.912C348.776 102.296 349.555 102.488 350.43 102.488Z" fill="#718C00"/>
<path d="M306.887 97.704C306.961 98.856 307.206 99.8 307.622 100.536C308.038 101.261 308.583 101.795 309.255 102.136C309.937 102.477 310.684 102.648 311.495 102.648C312.327 102.648 313.095 102.52 313.799 102.264C314.503 102.008 315.212 101.645 315.926 101.176L317.479 103.32C316.689 103.96 315.766 104.472 314.71 104.856C313.654 105.24 312.524 105.432 311.318 105.432C309.569 105.432 308.086 105.059 306.87 104.312C305.665 103.565 304.748 102.525 304.118 101.192C303.489 99.8587 303.174 98.3173 303.174 96.568C303.174 94.872 303.484 93.3573 304.102 92.024C304.721 90.68 305.606 89.6187 306.758 88.84C307.91 88.0507 309.287 87.656 310.887 87.656C312.391 87.656 313.681 87.9973 314.758 88.68C315.846 89.3627 316.684 90.3333 317.271 91.592C317.868 92.84 318.167 94.344 318.167 96.104C318.167 96.392 318.156 96.68 318.135 96.968C318.124 97.2453 318.108 97.4907 318.087 97.704H306.887ZM310.919 90.312C309.799 90.312 308.871 90.712 308.135 91.512C307.409 92.312 306.988 93.56 306.87 95.256H314.695C314.663 93.6667 314.321 92.4453 313.671 91.592C313.031 90.7387 312.113 90.312 310.919 90.312Z" fill="#4271AE"/>
<path d="M290.867 102.68C291.987 102.68 292.878 102.483 293.539 102.088C294.2 101.683 294.531 101.128 294.531 100.424C294.531 99.9653 294.435 99.576 294.243 99.256C294.051 98.9253 293.667 98.6267 293.091 98.36C292.515 98.0827 291.64 97.7947 290.467 97.496C289.358 97.208 288.382 96.8667 287.539 96.472C286.707 96.0773 286.062 95.5653 285.603 94.936C285.144 94.3067 284.915 93.496 284.915 92.504C284.915 91.5333 285.187 90.6853 285.731 89.96C286.275 89.2347 287.054 88.6693 288.067 88.264C289.091 87.8587 290.291 87.656 291.667 87.656C293.086 87.656 294.323 87.8427 295.379 88.216C296.435 88.5893 297.336 89.0533 298.083 89.608L296.579 91.864C295.918 91.4267 295.192 91.0693 294.403 90.792C293.624 90.5147 292.744 90.376 291.763 90.376C290.622 90.376 289.8 90.5467 289.299 90.888C288.808 91.2293 288.563 91.6827 288.563 92.248C288.563 92.664 288.686 93.016 288.931 93.304C289.187 93.5813 289.624 93.8427 290.243 94.088C290.862 94.3227 291.736 94.6 292.867 94.92C293.966 95.2187 294.92 95.5707 295.731 95.976C296.552 96.3813 297.187 96.92 297.635 97.592C298.094 98.2533 298.323 99.1173 298.323 100.184C298.323 101.4 297.971 102.397 297.267 103.176C296.574 103.944 295.656 104.515 294.515 104.888C293.384 105.251 292.168 105.432 290.867 105.432C289.299 105.432 287.944 105.208 286.803 104.76C285.662 104.301 284.702 103.731 283.923 103.048L285.827 100.872C286.488 101.405 287.246 101.843 288.099 102.184C288.952 102.515 289.875 102.68 290.867 102.68Z" fill="#4271AE"/>
<path d="M272.303 87.656C273.957 87.656 275.349 88.024 276.48 88.76C277.61 89.496 278.464 90.5253 279.04 91.848C279.626 93.1707 279.919 94.728 279.919 96.52C279.919 98.3013 279.621 99.864 279.023 101.208C278.437 102.541 277.573 103.581 276.432 104.328C275.301 105.064 273.92 105.432 272.288 105.432C270.656 105.432 269.269 105.075 268.128 104.36C266.997 103.635 266.133 102.605 265.536 101.272C264.949 99.9387 264.656 98.3653 264.656 96.552C264.656 94.792 264.949 93.2453 265.536 91.912C266.133 90.5787 267.002 89.5387 268.143 88.792C269.285 88.0347 270.671 87.656 272.303 87.656ZM272.303 90.44C271.013 90.44 270.042 90.936 269.391 91.928C268.741 92.9093 268.415 94.4507 268.415 96.552C268.415 98.6427 268.736 100.184 269.376 101.176C270.026 102.168 270.997 102.664 272.288 102.664C273.578 102.664 274.544 102.168 275.184 101.176C275.834 100.184 276.16 98.632 276.16 96.52C276.16 94.44 275.839 92.9093 275.199 91.928C274.559 90.936 273.594 90.44 272.303 90.44Z" fill="#4271AE"/>
<path d="M254.588 87.656C256.081 87.656 257.276 88.024 258.172 88.76C259.068 89.4853 259.719 90.5147 260.124 91.848C260.529 93.1707 260.732 94.728 260.732 96.52C260.732 98.2373 260.487 99.768 259.996 101.112C259.505 102.456 258.775 103.512 257.804 104.28C256.844 105.048 255.649 105.432 254.22 105.432C252.449 105.432 251.02 104.808 249.932 103.56V111.496L246.348 111.896V88.104H249.468L249.692 90.28C250.332 89.4053 251.073 88.7493 251.916 88.312C252.769 87.8747 253.66 87.656 254.588 87.656ZM253.596 90.424C252.796 90.424 252.092 90.664 251.484 91.144C250.876 91.624 250.359 92.1893 249.932 92.84V100.744C250.337 101.352 250.817 101.821 251.372 102.152C251.937 102.472 252.572 102.632 253.276 102.632C254.481 102.632 255.399 102.147 256.028 101.176C256.657 100.205 256.972 98.6587 256.972 96.536C256.972 95.096 256.844 93.928 256.588 93.032C256.343 92.1253 255.969 91.464 255.468 91.048C254.977 90.632 254.353 90.424 253.596 90.424Z" fill="#4271AE"/>
<path d="M240.072 100.856C240.072 101.517 240.174 102.003 240.376 102.312C240.579 102.611 240.905 102.835 241.353 102.984L240.553 105.416C239.721 105.32 239.006 105.091 238.409 104.728C237.811 104.365 237.358 103.816 237.049 103.08C236.43 103.859 235.646 104.445 234.697 104.84C233.747 105.235 232.734 105.432 231.656 105.432C229.95 105.432 228.595 104.952 227.592 103.992C226.6 103.021 226.105 101.752 226.105 100.184C226.105 98.4027 226.798 97.032 228.184 96.072C229.571 95.112 231.555 94.632 234.137 94.632H236.553V93.528C236.553 92.44 236.222 91.656 235.561 91.176C234.91 90.696 233.987 90.456 232.792 90.456C232.238 90.456 231.566 90.5307 230.777 90.68C229.987 90.8187 229.16 91.0373 228.296 91.336L227.417 88.808C228.473 88.4133 229.507 88.1253 230.521 87.944C231.534 87.752 232.473 87.656 233.337 87.656C235.598 87.656 237.283 88.1573 238.393 89.16C239.513 90.1627 240.072 91.5493 240.072 93.32V100.856ZM232.745 102.792C233.47 102.792 234.179 102.6 234.872 102.216C235.566 101.832 236.126 101.293 236.553 100.6V96.872H234.568C232.883 96.872 231.678 97.1547 230.952 97.72C230.227 98.2747 229.865 99.0427 229.865 100.024C229.865 100.92 230.105 101.608 230.585 102.088C231.075 102.557 231.795 102.792 232.745 102.792Z" fill="#4271AE"/>
<path d="M222.085 104.104C221.466 104.499 220.725 104.819 219.861 105.064C218.997 105.309 218.096 105.432 217.157 105.432C215.194 105.432 213.701 104.925 212.677 103.912C211.664 102.888 211.157 101.544 211.157 99.88V90.712H207.397V88.104H211.157V84.328L214.741 83.896V88.104H220.437L220.037 90.712H214.741V99.848C214.741 100.755 214.965 101.432 215.413 101.88C215.872 102.317 216.618 102.536 217.653 102.536C218.272 102.536 218.842 102.461 219.365 102.312C219.888 102.163 220.362 101.971 220.789 101.736L222.085 104.104Z" fill="#4271AE"/>
<path d="M191.281 105H187.313L193.377 96.088L187.985 88.104H192.113L195.569 94.056L199.025 88.104H202.961L197.681 95.944L203.761 105H199.553L195.409 98.104L191.281 105Z" fill="#4271AE"/>
<path d="M173.182 88.104V99.912C173.182 100.915 173.379 101.629 173.774 102.056C174.179 102.483 174.787 102.696 175.598 102.696C176.366 102.696 177.107 102.467 177.822 102.008C178.537 101.549 179.102 100.989 179.518 100.328V88.104H183.102V105H180.014L179.79 102.84C179.161 103.683 178.366 104.328 177.406 104.776C176.446 105.213 175.465 105.432 174.462 105.432C172.83 105.432 171.609 104.984 170.798 104.088C169.998 103.181 169.598 101.939 169.598 100.36V88.104H173.182Z" fill="#4271AE"/>
<path d="M162.139 88.104V101.448C162.139 103.549 161.701 105.293 160.826 106.68C159.962 108.067 158.693 109.171 157.019 109.992C155.344 110.824 153.301 111.459 150.89 111.896L150.314 109.144C151.989 108.824 153.445 108.381 154.683 107.816C155.92 107.251 156.875 106.477 157.547 105.496C158.219 104.515 158.555 103.245 158.555 101.688V90.728H151.882V88.104H162.139ZM159.339 79.832C160.032 79.832 160.597 80.0453 161.035 80.472C161.472 80.8987 161.69 81.432 161.69 82.072C161.69 82.712 161.472 83.2507 161.035 83.688C160.597 84.1253 160.032 84.344 159.339 84.344C158.645 84.344 158.08 84.1253 157.643 83.688C157.216 83.2507 157.003 82.712 157.003 82.072C157.003 81.432 157.216 80.8987 157.643 80.472C158.08 80.0453 158.645 79.832 159.339 79.832Z" fill="#4271AE"/>
<path d="M135.767 93.8C135.767 95.336 135.89 96.728 136.135 97.976C136.391 99.2133 136.786 100.371 137.319 101.448C137.852 102.515 138.53 103.56 139.351 104.584C140.183 105.608 141.17 106.669 142.311 107.768L140.327 109.688C138.61 108.259 137.132 106.776 135.895 105.24C134.668 103.715 133.724 102.024 133.063 100.168C132.402 98.312 132.071 96.1893 132.071 93.8C132.071 91.4 132.402 89.272 133.063 87.416C133.724 85.56 134.668 83.8693 135.895 82.344C137.132 80.808 138.61 79.3307 140.327 77.912L142.311 79.832C141.191 80.9093 140.215 81.96 139.383 82.984C138.562 83.9973 137.879 85.0427 137.335 86.12C136.802 87.1973 136.407 88.36 136.151 89.608C135.895 90.856 135.767 92.2533 135.767 93.8Z" fill="#3E999F"/>
<path d="M116.58 93.8C116.58 95.336 116.702 96.728 116.948 97.976C117.204 99.2133 117.598 100.371 118.132 101.448C118.665 102.515 119.342 103.56 120.164 104.584C120.996 105.608 121.982 106.669 123.124 107.768L121.139 109.688C119.422 108.259 117.945 106.776 116.708 105.24C115.481 103.715 114.537 102.024 113.875 100.168C113.214 98.312 112.883 96.1893 112.883 93.8C112.883 91.4 113.214 89.272 113.875 87.416C114.537 85.56 115.481 83.8693 116.708 82.344C117.945 80.808 119.422 79.3307 121.139 77.912L123.124 79.832C122.004 80.9093 121.027 81.96 120.195 82.984C119.374 83.9973 118.691 85.0427 118.147 86.12C117.614 87.1973 117.22 88.36 116.964 89.608C116.708 90.856 116.58 92.2533 116.58 93.8Z" fill="#F5871F"/>
<path d="M304.495 138.8C304.495 137.253 304.367 135.856 304.111 134.608C303.855 133.36 303.455 132.197 302.911 131.12C302.378 130.043 301.695 128.997 300.863 127.984C300.042 126.96 299.072 125.909 297.952 124.832L299.936 122.912C301.653 124.331 303.125 125.808 304.352 127.344C305.589 128.869 306.538 130.56 307.199 132.416C307.861 134.272 308.191 136.4 308.191 138.8C308.191 141.189 307.861 143.312 307.199 145.168C306.538 147.024 305.589 148.715 304.352 150.24C303.125 151.776 301.653 153.259 299.936 154.688L297.952 152.768C299.093 151.669 300.074 150.608 300.896 149.584C301.728 148.56 302.41 147.515 302.943 146.448C303.477 145.371 303.866 144.213 304.111 142.976C304.367 141.728 304.495 140.336 304.495 138.8Z" fill="#8959A8"/>
<path d="M285.308 138.8C285.308 137.253 285.18 135.856 284.924 134.608C284.668 133.36 284.268 132.197 283.724 131.12C283.191 130.043 282.508 128.997 281.676 127.984C280.855 126.96 279.884 125.909 278.764 124.832L280.748 122.912C282.465 124.331 283.937 125.808 285.164 127.344C286.401 128.869 287.351 130.56 288.012 132.416C288.673 134.272 289.004 136.4 289.004 138.8C289.004 141.189 288.673 143.312 288.012 145.168C287.351 147.024 286.401 148.715 285.164 150.24C283.937 151.776 282.465 153.259 280.748 154.688L278.764 152.768C279.905 151.669 280.887 150.608 281.708 149.584C282.54 148.56 283.223 147.515 283.756 146.448C284.289 145.371 284.679 144.213 284.924 142.976C285.18 141.728 285.308 140.336 285.308 138.8Z" fill="#F5871F"/>
<path d="M271.945 133.104L266.12 150.064C265.683 151.344 265.123 152.469 264.441 153.44C263.758 154.421 262.883 155.211 261.816 155.808C260.75 156.405 259.427 156.773 257.848 156.912L257.385 154.224C258.526 154.043 259.433 153.776 260.105 153.424C260.787 153.083 261.326 152.629 261.721 152.064C262.126 151.499 262.483 150.811 262.792 150H261.577L255.88 133.104H259.689L263.945 147.504L268.264 133.104H271.945Z" fill="#718C00"/>
<path d="M252.085 149.104C251.466 149.499 250.725 149.819 249.861 150.064C248.997 150.309 248.096 150.432 247.157 150.432C245.194 150.432 243.701 149.925 242.677 148.912C241.664 147.888 241.157 146.544 241.157 144.88V135.712H237.397V133.104H241.157V129.328L244.741 128.896V133.104H250.437L250.037 135.712H244.741V144.848C244.741 145.755 244.965 146.432 245.413 146.88C245.872 147.317 246.618 147.536 247.653 147.536C248.272 147.536 248.842 147.461 249.365 147.312C249.888 147.163 250.362 146.971 250.789 146.736L252.085 149.104Z" fill="#718C00"/>
<path d="M228.018 133.104V147.376H232.609V150H219.378V147.376H224.434V135.728H219.537V133.104H228.018ZM225.521 124.832C226.225 124.832 226.791 125.045 227.217 125.472C227.655 125.899 227.874 126.432 227.874 127.072C227.874 127.712 227.655 128.251 227.217 128.688C226.791 129.125 226.225 129.344 225.521 129.344C224.839 129.344 224.279 129.125 223.841 128.688C223.404 128.251 223.186 127.712 223.186 127.072C223.186 126.432 223.404 125.899 223.841 125.472C224.279 125.045 224.839 124.832 225.521 124.832Z" fill="#718C00"/>
<path d="M213.71 149.104C213.091 149.499 212.35 149.819 211.486 150.064C210.622 150.309 209.721 150.432 208.782 150.432C206.819 150.432 205.326 149.925 204.302 148.912C203.289 147.888 202.782 146.544 202.782 144.88V135.712H199.022V133.104H202.782V129.328L206.366 128.896V133.104H212.062L211.662 135.712H206.366V144.848C206.366 145.755 206.59 146.432 207.038 146.88C207.497 147.317 208.243 147.536 209.278 147.536C209.897 147.536 210.467 147.461 210.99 147.312C211.513 147.163 211.987 146.971 212.414 146.736L213.71 149.104Z" fill="#718C00"/>
<path d="M180.41 150V133.104H183.499L183.771 135.296C184.475 134.432 185.307 133.776 186.267 133.328C187.227 132.88 188.213 132.656 189.227 132.656C190.805 132.656 191.984 133.099 192.762 133.984C193.552 134.859 193.947 136.091 193.947 137.68V150H190.363V139.456C190.363 138.475 190.304 137.685 190.187 137.088C190.069 136.491 189.834 136.059 189.482 135.792C189.141 135.525 188.629 135.392 187.947 135.392C187.403 135.392 186.885 135.509 186.395 135.744C185.904 135.979 185.456 136.288 185.05 136.672C184.645 137.045 184.293 137.445 183.994 137.872V150H180.41Z" fill="#718C00"/>
<path d="M164.199 142.704C164.274 143.856 164.519 144.8 164.935 145.536C165.351 146.261 165.895 146.795 166.567 147.136C167.25 147.477 167.996 147.648 168.807 147.648C169.639 147.648 170.407 147.52 171.111 147.264C171.815 147.008 172.524 146.645 173.239 146.176L174.791 148.32C174.002 148.96 173.079 149.472 172.023 149.856C170.967 150.24 169.836 150.432 168.631 150.432C166.882 150.432 165.399 150.059 164.183 149.312C162.978 148.565 162.06 147.525 161.431 146.192C160.802 144.859 160.487 143.317 160.487 141.568C160.487 139.872 160.796 138.357 161.415 137.024C162.034 135.68 162.919 134.619 164.071 133.84C165.223 133.051 166.599 132.656 168.199 132.656C169.703 132.656 170.994 132.997 172.071 133.68C173.159 134.363 173.996 135.333 174.583 136.592C175.18 137.84 175.479 139.344 175.479 141.104C175.479 141.392 175.468 141.68 175.447 141.968C175.436 142.245 175.42 142.491 175.399 142.704H164.199ZM168.231 135.312C167.111 135.312 166.183 135.712 165.447 136.512C164.722 137.312 164.3 138.56 164.183 140.256H172.007C171.975 138.667 171.634 137.445 170.983 136.592C170.343 135.739 169.426 135.312 168.231 135.312Z" fill="#718C00"/>
<path d="M151.955 125.92L155.539 126.32V150H152.387L152.131 147.92C151.555 148.72 150.867 149.339 150.067 149.776C149.267 150.213 148.371 150.432 147.379 150.432C145.929 150.432 144.734 150.064 143.795 149.328C142.857 148.581 142.158 147.541 141.699 146.208C141.251 144.864 141.027 143.312 141.027 141.552C141.027 139.835 141.294 138.309 141.827 136.976C142.361 135.632 143.123 134.576 144.115 133.808C145.107 133.04 146.302 132.656 147.699 132.656C148.585 132.656 149.379 132.816 150.083 133.136C150.787 133.445 151.411 133.899 151.955 134.496V125.92ZM148.643 135.408C147.438 135.408 146.499 135.909 145.827 136.912C145.155 137.904 144.819 139.451 144.819 141.552C144.819 142.992 144.958 144.165 145.235 145.072C145.513 145.968 145.913 146.629 146.435 147.056C146.958 147.472 147.587 147.68 148.323 147.68C149.134 147.68 149.838 147.445 150.435 146.976C151.033 146.507 151.539 145.941 151.955 145.28V137.28C151.539 136.683 151.054 136.224 150.499 135.904C149.945 135.573 149.326 135.408 148.643 135.408Z" fill="#718C00"/>
<path d="M132.08 133.104V147.376H136.672V150H123.44V147.376H128.496V135.728H123.6V133.104H132.08ZM129.584 124.832C130.288 124.832 130.853 125.045 131.28 125.472C131.717 125.899 131.936 126.432 131.936 127.072C131.936 127.712 131.717 128.251 131.28 128.688C130.853 129.125 130.288 129.344 129.584 129.344C128.901 129.344 128.341 129.125 127.904 128.688C127.467 128.251 127.248 127.712 127.248 127.072C127.248 126.432 127.467 125.899 127.904 125.472C128.341 125.045 128.901 124.832 129.584 124.832Z" fill="#718C00"/>
</g>
<defs>
<clipPath id="clip0_3_2">
<rect width="700" height="180" fill="white"/>
</clipPath>
</defs>
</svg>
