<svg width="700" height="180" viewBox="0 0 700 180" fill="none" xmlns="http://www.w3.org/2000/svg">
<g clip-path="url(#clip0_1_2)">
<path d="M692 0H8C3.58172 0 0 3.58172 0 8V172C0 176.418 3.58172 180 8 180H692C696.418 180 700 176.418 700 172V8C700 3.58172 696.418 0 692 0Z" fill="#F8F8F8"/>
<path d="M217.656 45.176C216.152 45.176 214.84 45.72 213.624 46.552C213.688 49.4 213.752 53.528 213.752 59H211.16C211.16 52.152 211.096 47.032 210.936 43.416L213.336 43.256L213.496 45.048C214.808 43.96 216.504 42.968 218.744 42.968C221.56 42.968 223.416 44.536 223.416 48.376V59H220.824V49.24C220.824 46.232 219.64 45.176 217.656 45.176Z" fill="#403F51"/>
<path d="M201.374 40.792H198.718L198.91 36.44H201.662L201.374 40.792ZM207.198 59H193.022V57.016H198.91V45.4L193.054 45.144L193.246 43.32H201.502V57.016H207.39L207.198 59Z" fill="#403F51"/>
<path d="M179.62 45.176C178.916 45.176 178.052 45.592 177.284 46.36C177.348 49.208 177.412 53.496 177.412 59H174.98C174.98 52.152 174.916 47.032 174.788 43.416L177.06 43.256L177.188 44.728C178.084 43.736 179.268 42.968 180.58 42.968C181.764 42.968 182.596 43.576 182.98 44.632C183.844 43.736 185.028 42.968 186.404 42.968C188.164 42.968 189.156 44.12 189.156 46.488V59H186.692V47.416C186.692 45.784 186.276 45.176 185.188 45.176C184.484 45.176 183.78 45.496 183.108 46.104C183.108 46.2 183.108 46.296 183.108 46.392V59H181.092V47.384C181.092 45.784 180.676 45.176 179.62 45.176Z" fill="#403F51"/>
<path d="M151.697 61.176C150.545 63.416 147.057 64.792 139.473 64.44L139.953 61.144C145.425 61.56 148.177 61.176 148.849 60.536C149.489 59.896 149.201 57.784 149.073 55.032C147.345 56.696 145.105 57.976 143.025 57.976C139.953 57.976 138.161 55.032 142.577 43.128L145.905 43C142.321 53.112 143.153 54.936 144.849 54.936C145.937 54.936 147.505 54.136 149.073 52.632C149.265 47.864 151.409 42.744 152.593 42.744C153.489 42.744 154.961 43.128 154.961 43.8C154.961 45.304 153.745 49.368 151.985 52.568V52.76C151.985 55.896 152.657 59.256 151.697 61.176Z" fill="#5375CF"/>
<path d="M135.575 56.984C129.527 60.504 125.463 59.992 124.375 55.544C123.671 55.96 122.935 56.408 122.839 56.472L122.007 55.064C122.135 54.968 123.287 54.232 124.119 53.688C124.087 53.4 124.087 53.112 124.087 52.824C124.087 44.056 129.527 36.376 134.327 36.376C136.343 36.376 137.591 37.656 137.591 39.96C137.591 43.928 134.327 48.792 127.639 53.688C128.119 57.016 130.487 57.176 135.031 55.256L135.575 56.984ZM133.079 39.736C130.807 39.736 127.767 44.856 127.543 51.48C132.407 47.384 134.423 43.8 134.423 41.432C134.423 40.28 133.847 39.736 133.079 39.736Z" fill="#5375CF"/>
<path d="M110.877 56.536C113.437 56.536 115.613 52.536 115.613 48.92C115.613 46.808 114.781 45.88 113.725 45.88C112.573 45.88 110.845 46.904 109.469 48.248C109.245 49.528 108.637 52.728 107.997 55.992C109.149 56.376 110.205 56.536 110.877 56.536ZM106.365 64.376L103.005 64.632C104.989 54.2 106.205 48.152 106.909 43.16L110.237 42.968C110.205 43.192 109.981 44.664 109.789 45.88C111.613 44.12 113.789 42.68 115.517 42.68C117.469 42.68 119.037 44.408 119.037 47.96C119.037 53.72 115.197 59.384 109.213 59.384C108.637 59.384 108.029 59.352 107.357 59.256C106.909 61.656 106.493 63.672 106.365 64.376Z" fill="#5375CF"/>
<path d="M93.2835 56.536C95.8435 56.536 98.0195 52.536 98.0195 48.92C98.0195 46.808 97.1875 45.88 96.1315 45.88C94.9795 45.88 93.2515 46.904 91.8755 48.248C91.6515 49.528 91.0435 52.728 90.4035 55.992C91.5555 56.376 92.6115 56.536 93.2835 56.536ZM88.7715 64.376L85.4115 64.632C87.3955 54.2 88.6115 48.152 89.3155 43.16L92.6435 42.968C92.6115 43.192 92.3875 44.664 92.1955 45.88C94.0195 44.12 96.1955 42.68 97.9235 42.68C99.8755 42.68 101.444 44.408 101.444 47.96C101.444 53.72 97.6035 59.384 91.6195 59.384C91.0435 59.384 90.4355 59.352 89.7635 59.256C89.3155 61.656 88.8995 63.672 88.7715 64.376Z" fill="#5375CF"/>
<path d="M74.0577 56.152C75.1457 56.152 76.8097 55.16 78.2177 53.848C78.5377 52.312 79.2737 48.568 79.7217 46.136C78.6657 45.784 77.6417 45.624 77.0017 45.624C74.4737 45.624 72.3297 49.784 72.3297 53.592C72.3297 55.416 73.0977 56.152 74.0577 56.152ZM84.1057 57.688C79.1777 60.632 77.7377 59.448 77.9937 56.12C76.1377 57.912 73.9617 59.384 72.2337 59.384C70.3137 59.384 68.8737 57.784 68.8737 54.424C68.8737 48.504 72.7137 42.744 78.7937 42.744C80.2337 42.744 81.8978 42.968 83.5618 43.448L81.3857 54.712C81.0337 56.472 81.1617 56.76 83.7857 55.96L84.1057 57.688Z" fill="#5375CF"/>
<path d="M63.248 35.8L65.008 37.432C58.448 42.552 56.112 46.648 56.112 50.712C56.112 54.776 58.48 58.872 64.912 63.96L63.12 65.592C56.272 59.96 53.552 55.352 53.552 50.808C53.552 46.168 56.336 41.464 63.248 35.8Z" fill="black"/>
<path d="M551.789 110.592L550.03 108.96C556.59 103.808 558.926 99.744 558.926 95.648C558.926 91.616 556.558 87.52 550.158 82.464L551.918 80.768C558.766 86.432 561.486 91.04 561.486 95.552C561.486 100.192 558.733 104.896 551.789 110.592Z" fill="#D27370"/>
<path d="M544.564 104.256C537.78 104.352 535.508 102.848 535.508 98.976V90.336H532.276L532.532 88.32H535.508V83.968L538.1 83.744V88.32H544.5V90.336H538.1V98.56C538.1 101.28 539.604 101.984 544.852 102.08L544.564 104.256Z" fill="#403F51"/>
<path d="M520.41 102.144C523.258 102.144 525.498 100.032 525.498 96.096C525.498 92.192 523.674 90.112 521.21 90.112C519.962 90.112 518.682 90.624 517.626 91.424C517.69 94.016 517.754 97.056 517.786 101.664C518.714 101.984 519.546 102.144 520.41 102.144ZM517.786 109.28L515.194 109.504V104.064C515.194 96.48 515.162 91.744 515.002 88.416L517.37 88.256L517.53 89.888C518.714 88.832 520.282 87.968 522.234 87.968C525.562 87.968 528.058 90.88 528.058 95.456C528.058 101.088 524.122 104.384 519.482 104.384C518.938 104.384 518.362 104.352 517.786 104.256V109.28Z" fill="#403F51"/>
<path d="M509.248 104.352C499.424 104.32 496.768 101.472 496.768 96.384C496.768 91.616 500.096 87.936 504.16 87.936C508.448 87.936 510.624 91.392 510.048 96.576L499.328 96.832C499.584 100.544 501.92 101.952 509.504 102.144L509.248 104.352ZM503.712 90.08C501.12 90.08 499.52 91.872 499.328 95.232C501.12 95.168 505.408 95.04 507.616 94.976C507.584 91.968 506.336 90.08 503.712 90.08Z" fill="#403F51"/>
<path d="M479.622 96.416C479.622 92.096 482.535 88.288 491.655 88.096L491.846 90.56C483.75 90.528 482.182 92.736 482.182 96.064C482.182 100.192 484.39 102.304 492.07 101.952L491.783 104.128C482.279 104.768 479.622 101.216 479.622 96.416Z" fill="#403F51"/>
<path d="M462.029 96.416C462.029 92.096 464.941 88.288 474.061 88.096L474.253 90.56C466.157 90.528 464.589 92.736 464.589 96.064C464.589 100.192 466.797 102.304 474.477 101.952L474.189 104.128C464.685 104.768 462.029 101.216 462.029 96.416Z" fill="#403F51"/>
<path d="M449.811 102.336C451.379 102.336 453.043 101.6 454.259 100.64C454.227 99.616 454.195 98.464 454.195 96.928C448.467 96.32 446.579 97.568 446.579 99.712C446.579 101.376 447.859 102.336 449.811 102.336ZM454.611 104.096C454.579 103.776 454.451 102.784 454.387 102.08C453.107 103.264 451.283 104.384 448.819 104.384C445.971 104.384 444.019 102.848 444.019 100.32C444.019 97.088 447.219 94.656 454.163 95.072C453.939 91.456 451.955 90.528 444.947 90.272L445.235 88.032C454.291 88.288 456.723 90.176 456.723 96.224C456.723 99.488 456.851 101.696 456.979 103.936L454.611 104.096Z" fill="#403F51"/>
<path d="M421.28 104.352C411.456 104.32 408.799 101.472 408.799 96.384C408.799 91.616 412.127 87.936 416.191 87.936C420.479 87.936 422.655 91.392 422.079 96.576L411.359 96.832C411.615 100.544 413.951 101.952 421.535 102.144L421.28 104.352ZM415.743 90.08C413.151 90.08 411.551 91.872 411.359 95.232C413.151 95.168 417.439 95.04 419.647 94.976C419.615 91.968 418.367 90.08 415.743 90.08Z" fill="#403F51"/>
<path d="M393.126 109.536L392.87 107.168C400.294 106.592 401.286 105.696 401.35 101.248C400.23 102.112 398.726 102.784 396.87 102.784C393.478 102.784 390.95 100.288 390.95 96.16C390.95 91.104 394.822 87.968 399.302 87.968C400.838 87.968 402.31 88.224 403.878 88.704C403.91 89.952 403.91 98.528 403.91 100.352C403.91 105.76 401.766 109.088 393.126 109.536ZM397.83 100.704C399.078 100.704 400.326 100.256 401.35 99.616C401.35 97.472 401.318 93.088 401.35 90.656C400.326 90.368 399.366 90.176 398.374 90.176C395.622 90.176 393.51 92.064 393.51 95.552C393.51 99.008 395.366 100.704 397.83 100.704Z" fill="#403F51"/>
<path d="M380.812 90.176C379.308 90.176 377.996 90.72 376.78 91.552C376.844 94.4 376.908 98.528 376.908 104H374.316C374.316 97.152 374.252 92.032 374.092 88.416L376.492 88.256L376.652 90.048C377.964 88.96 379.66 87.968 381.9 87.968C384.716 87.968 386.572 89.536 386.572 93.376V104H383.98V94.24C383.98 91.232 382.796 90.176 380.812 90.176Z" fill="#403F51"/>
<path d="M361.842 102.336C363.41 102.336 365.074 101.6 366.29 100.64C366.258 99.616 366.226 98.464 366.226 96.928C360.498 96.32 358.61 97.568 358.61 99.712C358.61 101.376 359.89 102.336 361.842 102.336ZM366.642 104.096C366.61 103.776 366.482 102.784 366.418 102.08C365.138 103.264 363.314 104.384 360.85 104.384C358.002 104.384 356.05 102.848 356.05 100.32C356.05 97.088 359.25 94.656 366.194 95.072C365.97 91.456 363.986 90.528 356.978 90.272L357.266 88.032C366.322 88.288 368.754 90.176 368.754 96.224C368.754 99.488 368.882 101.696 369.01 103.936L366.642 104.096Z" fill="#403F51"/>
<path d="M345.624 90.176C344.152 90.176 342.904 90.688 341.72 91.456V104H339.128V81.632L341.72 81.408V89.856C343 88.832 344.632 87.968 346.712 87.968C349.528 87.968 351.384 89.536 351.384 93.376V104H348.792V94.24C348.792 91.232 347.608 90.176 345.624 90.176Z" fill="#403F51"/>
<path d="M321.279 96.416C321.279 92.096 324.191 88.288 333.311 88.096L333.503 90.56C325.407 90.528 323.839 92.736 323.839 96.064C323.839 100.192 326.047 102.304 333.727 101.952L333.439 104.128C323.935 104.768 321.279 101.216 321.279 96.416Z" fill="#403F51"/>
<path d="M298.891 102.144C289.867 106.72 285.227 103.552 285.227 98.304C285.227 93.216 289.515 87.616 295.019 87.616C297.931 87.616 299.691 89.152 299.691 91.616C299.691 95.296 295.787 97.568 288.523 98.08C288.619 101.6 291.115 102.272 298.507 100.384L298.891 102.144ZM294.123 90.432C291.307 90.432 289.259 93.248 288.683 96.192C293.483 95.808 296.459 94.592 296.459 92.352C296.459 91.232 295.563 90.432 294.123 90.432Z" fill="#5375CF"/>
<path d="M281.105 99.392C281.105 102.08 278.577 104.544 269.617 104.256L269.682 101.152C275.986 101.6 277.682 100.928 277.682 99.584C277.682 98.144 275.633 96.416 274.161 94.4C272.753 95.424 271.026 96.544 268.85 97.696L268.081 96.128C270.385 94.624 271.986 93.504 273.074 92.512C272.818 91.936 272.689 91.36 272.689 90.752C272.689 88.576 274.801 86.912 276.753 86.912C278.993 86.912 279.762 88.96 276.85 92.064C278.066 94.24 281.105 96.768 281.105 99.392Z" fill="#5375CF"/>
<path d="M249.816 97.856C249.816 92.352 253.496 87.616 258.456 87.616C262.136 87.616 264.504 90.048 264.504 94.176C264.504 99.744 260.824 104.416 255.864 104.416C252.152 104.416 249.816 102.016 249.816 97.856ZM261.048 94.624C261.048 91.968 259.896 90.464 257.976 90.464C255.192 90.464 253.272 93.824 253.272 97.408C253.272 100.064 254.424 101.568 256.344 101.568C259.128 101.568 261.048 98.24 261.048 94.624Z" fill="#5375CF"/>
<path d="M238.846 101.536C241.406 101.536 243.582 97.536 243.582 93.92C243.582 91.808 242.75 90.88 241.694 90.88C240.542 90.88 238.814 91.904 237.438 93.248C237.214 94.528 236.606 97.728 235.966 100.992C237.118 101.376 238.174 101.536 238.846 101.536ZM234.334 109.376L230.974 109.632C232.958 99.2 234.174 93.152 234.878 88.16L238.206 87.968C238.174 88.192 237.95 89.664 237.758 90.88C239.582 89.12 241.758 87.68 243.486 87.68C245.438 87.68 247.006 89.408 247.006 92.96C247.006 98.72 243.166 104.384 237.182 104.384C236.606 104.384 235.998 104.352 235.326 104.256C234.878 106.656 234.462 108.672 234.334 109.376Z" fill="#5375CF"/>
<path d="M219.62 101.152C220.708 101.152 222.372 100.16 223.78 98.848C224.1 97.312 224.836 93.568 225.284 91.136C224.228 90.784 223.204 90.624 222.564 90.624C220.036 90.624 217.892 94.784 217.892 98.592C217.892 100.416 218.66 101.152 219.62 101.152ZM229.668 102.688C224.74 105.632 223.3 104.448 223.556 101.12C221.7 102.912 219.524 104.384 217.796 104.384C215.876 104.384 214.436 102.784 214.436 99.424C214.436 93.504 218.276 87.744 224.356 87.744C225.796 87.744 227.46 87.968 229.124 88.448L226.948 99.712C226.596 101.472 226.724 101.76 229.348 100.96L229.668 102.688Z" fill="#5375CF"/>
<path d="M210.41 102.336C202.154 106.624 198.987 103.84 200.171 98.528L201.898 90.816H198.954L199.627 88.16H201.547L204.299 83.712L206.891 83.52L205.867 88.16H211.627L211.115 90.816H205.258L203.594 98.336C202.89 101.376 203.851 102.304 210.187 100.608L210.41 102.336Z" fill="#5375CF"/>
<path d="M189.041 104.064L186.193 97.984L181.233 104H177.585L184.561 96.032L180.657 88.16L184.433 88L187.313 94.08L192.273 88.064H195.921L188.945 96.032L192.849 103.904L189.041 104.064Z" fill="#5375CF"/>
<path d="M177.079 102.688C172.247 105.568 170.615 104.512 170.967 101.152C169.047 103.296 167.255 104.416 165.463 104.416C163.031 104.416 161.879 102.464 162.743 98.528L163.895 93.184L162.327 92.16L165.015 88.128L168.375 87.904L166.167 98.08C165.687 100.224 166.103 101.152 167.319 101.152C168.471 101.152 169.911 100.224 171.447 98.4L173.463 88.064H176.791L174.519 99.712C174.167 101.472 174.295 101.824 176.759 100.96L177.079 102.688Z" fill="#5375CF"/>
<path d="M157.373 85.472L153.693 85.632L154.781 81.184L158.717 80.992L157.373 85.472ZM142.557 109.536L142.845 106.24C148.893 106.4 149.661 106.336 150.237 105.76C151.261 104.704 150.141 100.736 152.541 90.912L146.557 91.296L146.301 89.536L153.469 88.032L156.637 88.064C152.861 100.8 154.941 105.472 152.669 107.776C151.325 109.12 149.245 109.472 142.557 109.536Z" fill="#5375CF"/>
<path d="M138.436 80.8L140.195 82.432C133.635 87.552 131.299 91.648 131.299 95.712C131.299 99.776 133.668 103.872 140.1 108.96L138.308 110.592C131.46 104.96 128.74 100.352 128.74 95.808C128.74 91.168 131.524 86.464 138.436 80.8Z" fill="#D27370"/>
<path d="M120.842 80.8L122.602 82.432C116.042 87.552 113.706 91.648 113.706 95.712C113.706 99.776 116.074 103.872 122.506 108.96L120.714 110.592C113.866 104.96 111.146 100.352 111.146 95.808C111.146 91.168 113.93 86.464 120.842 80.8Z" fill="#4396E0"/>
<path d="M282.696 155.592L280.936 153.96C287.496 148.808 289.832 144.744 289.832 140.648C289.832 136.616 287.464 132.52 281.064 127.464L282.824 125.768C289.672 131.432 292.392 136.04 292.392 140.552C292.392 145.192 289.64 149.896 282.696 155.592Z" fill="black"/>
<path d="M265.102 155.592L263.342 153.96C269.902 148.808 272.238 144.744 272.238 140.648C272.238 136.616 269.87 132.52 263.47 127.464L265.23 125.768C272.078 131.432 274.798 136.04 274.798 140.552C274.798 145.192 272.046 149.896 265.102 155.592Z" fill="#4396E0"/>
<path d="M245.396 154.696L245.172 152.296C249.172 151.688 250.1 151.144 251.188 148.584L250.9 148.52C249.076 144.52 246.068 137.256 244.5 133.416L247.156 133.256C248.724 137.256 250.516 141.8 252.276 145.8H252.596C253.78 142.6 256.02 135.528 256.852 133.32H259.348C258.036 137.192 256.372 141.864 254.324 147.048C252.212 152.584 250.708 154.056 245.396 154.696Z" fill="#403F51"/>
<path d="M240.283 149.256C233.499 149.352 231.227 147.848 231.227 143.976V135.336H227.995L228.251 133.32H231.227V128.968L233.819 128.744V133.32H240.219V135.336H233.819V143.56C233.819 146.28 235.323 146.984 240.571 147.08L240.283 149.256Z" fill="#403F51"/>
<path d="M218.593 130.792H215.937L216.129 126.44H218.881L218.593 130.792ZM224.417 149H210.241V147.016H216.129V135.4L210.273 135.144L210.465 133.32H218.721V147.016H224.609L224.417 149Z" fill="#403F51"/>
<path d="M205.095 149.256C198.311 149.352 196.039 147.848 196.039 143.976V135.336H192.807L193.063 133.32H196.039V128.968L198.631 128.744V133.32H205.031V135.336H198.631V143.56C198.631 146.28 200.135 146.984 205.383 147.08L205.095 149.256Z" fill="#403F51"/>
<path d="M182.093 135.176C180.589 135.176 179.277 135.72 178.061 136.552C178.125 139.4 178.189 143.528 178.189 149H175.597C175.597 142.152 175.533 137.032 175.373 133.416L177.773 133.256L177.933 135.048C179.245 133.96 180.941 132.968 183.181 132.968C185.997 132.968 187.853 134.536 187.853 138.376V149H185.261V139.24C185.261 136.232 184.077 135.176 182.093 135.176Z" fill="#403F51"/>
<path d="M169.78 149.352C159.956 149.32 157.299 146.472 157.299 141.384C157.299 136.616 160.628 132.936 164.692 132.936C168.98 132.936 171.156 136.392 170.58 141.576L159.86 141.832C160.116 145.544 162.451 146.952 170.035 147.144L169.78 149.352ZM164.243 135.08C161.651 135.08 160.052 136.872 159.86 140.232C161.652 140.168 165.939 140.04 168.147 139.976C168.115 136.968 166.867 135.08 164.243 135.08Z" fill="#403F51"/>
<path d="M146.266 147.24C147.578 147.24 148.794 146.664 149.754 145.896C149.69 143.176 149.658 140.008 149.658 135.624C148.762 135.336 147.898 135.176 147.066 135.176C144.186 135.176 141.946 137.32 141.946 141.288C141.946 145.288 143.738 147.24 146.266 147.24ZM150.042 149.064L149.882 147.432C148.762 148.488 147.194 149.384 145.274 149.384C141.882 149.384 139.386 146.6 139.386 141.96C139.386 136.232 143.482 132.968 148.25 132.968C148.73 132.968 149.21 133 149.658 133.064V126.632L152.25 126.408V133.384C152.25 140.424 152.314 145.384 152.474 148.936L150.042 149.064Z" fill="#403F51"/>
<path d="M130.624 130.792H127.968L128.16 126.44H130.912L130.624 130.792ZM136.448 149H122.272V147.016H128.16V135.4L122.304 135.144L122.496 133.32H130.752V147.016H136.64L136.448 149Z" fill="#403F51"/>
</g>
<defs>
<clipPath id="clip0_1_2">
<rect width="700" height="180" fill="white"/>
</clipPath>
</defs>
</svg>
